<svg width="110" height="110" viewBox="0 0 110 110" fill="none" xmlns="http://www.w3.org/2000/svg">
<path d="M55 2.5C83.9949 2.5 107.5 26.0051 107.5 55C107.5 83.9949 83.9949 107.5 55 107.5C26.0051 107.5 2.5 83.9949 2.5 55C2.5 26.0051 26.0051 2.5 55 2.5Z" fill="black" stroke="white" stroke-width="5"/>
<path d="M10.2656 66V64.0312L12.8125 63.5938V45.6719L10.2656 45.2344V43.25H12.8125H20.0781C22.4531 43.25 24.3073 43.7656 25.6406 44.7969C26.9844 45.8177 27.6562 47.3542 27.6562 49.4062C27.6562 50.4167 27.3333 51.3229 26.6875 52.125C26.0521 52.9167 25.2083 53.5052 24.1562 53.8906C25.0729 54.0781 25.8594 54.4479 26.5156 55C27.1719 55.5417 27.6771 56.2083 28.0312 57C28.3958 57.7812 28.5781 58.6406 28.5781 59.5781C28.5781 61.6615 27.901 63.2552 26.5469 64.3594C25.1927 65.4531 23.3594 66 21.0469 66H10.2656ZM15.8906 63.5938H21.0469C22.4531 63.5938 23.5417 63.25 24.3125 62.5625C25.0938 61.8646 25.4844 60.8802 25.4844 59.6094C25.4844 58.276 25.1562 57.2292 24.5 56.4688C23.8542 55.7083 22.8594 55.3281 21.5156 55.3281H15.8906V63.5938ZM15.8906 52.9219H20.875C21.9792 52.9219 22.8698 52.6042 23.5469 51.9688C24.2344 51.3229 24.5781 50.4479 24.5781 49.3438C24.5781 48.1146 24.1927 47.1979 23.4219 46.5938C22.651 45.9792 21.5365 45.6719 20.0781 45.6719H15.8906V52.9219Z" fill="white"/>
<path d="M54.5469 32.3281C53.0781 32.3281 51.7604 32.0469 50.5938 31.4844C49.4271 30.9219 48.4323 30.1302 47.6094 29.1094C46.7969 28.0781 46.1719 26.8594 45.7344 25.4531C45.3073 24.0469 45.0938 22.4948 45.0938 20.7969V20.4688C45.0938 18.7812 45.3073 17.2344 45.7344 15.8281C46.1719 14.4115 46.7969 13.1875 47.6094 12.1562C48.4323 11.125 49.4271 10.3281 50.5938 9.76562C51.7604 9.20312 53.0781 8.92188 54.5469 8.92188C56.099 8.92188 57.4635 9.20312 58.6406 9.76562C59.8177 10.3281 60.8021 11.125 61.5938 12.1562C62.3958 13.1875 63 14.4115 63.4062 15.8281C63.8125 17.2344 64.0156 18.7812 64.0156 20.4688V20.7969C64.0156 22.4948 63.8125 24.0469 63.4062 25.4531C63 26.8594 62.3958 28.0781 61.5938 29.1094C60.8021 30.1302 59.8177 30.9219 58.6406 31.4844C57.4635 32.0469 56.099 32.3281 54.5469 32.3281ZM54.5469 29.7656C56.0573 29.7656 57.276 29.3906 58.2031 28.6406C59.1406 27.8906 59.8281 26.8438 60.2656 25.5C60.7031 24.1458 60.9219 22.5781 60.9219 20.7969V20.4375C60.9219 18.6667 60.6979 17.1146 60.25 15.7812C59.8125 14.4375 59.125 13.3906 58.1875 12.6406C57.25 11.8802 56.0365 11.5 54.5469 11.5C53.1823 11.5 52.026 11.8802 51.0781 12.6406C50.1302 13.401 49.4115 14.4531 48.9219 15.7969C48.4323 17.1302 48.1875 18.6771 48.1875 20.4375V20.7969C48.1875 22.5677 48.4323 24.1302 48.9219 25.4844C49.4115 26.8281 50.1302 27.8802 51.0781 28.6406C52.026 29.3906 53.1823 29.7656 54.5469 29.7656Z" fill="white"/>
<path d="M77.3311 65V63.2158L79.6392 62.8193V46.5776L77.3311 46.1812V44.3828H79.6392H83.3633L90.0044 60.0298H90.0894L96.5181 44.3828H102.734V46.1812L100.426 46.5776V62.8193L102.734 63.2158V65H95.3286V63.2158L97.7642 62.8193V56.8438V48.1919L97.6934 48.1777L90.9956 64.2637H89.1406L82.2163 48.2061L82.1455 48.2202L82.2446 56.8438V62.8193L84.7368 63.2158V65H77.3311Z" fill="white"/>
<path d="M47.4062 100V97.6719L59.2344 79.6562H50.3906L50.1094 82.5938H47.6406V77.25H62.7812V79.5156L50.8906 97.6094H60.5625L60.8438 94.375H63.2969V100H47.4062Z" fill="white"/>
<circle cx="55" cy="55" r="15" fill="white"/>
</svg>
